# xmcd
#
# Track frame offsets:
#   150
#   18472
#   34762
#   43489
#   58730
#   70745
#   80167
#   93250
#   103947
#   118097
#   130890
#   144902
#
# Disc length: 2144 seconds
#
# Revision: 0
# Processed by: cddbd v1.5.2PL0 Copyright (c) Steve Scherf et al.
# Submitted via: uFREEDB ActiveX Control 1.5
#
DISCID=ad085e0c
DTITLE=Vários Artistas - Coração Brasileiro - Vol.5
DYEAR=2006
DGENRE=sertanejo
TTITLE0=Rio de Lágrimas - Belmiro and Belmann
TTITLE1=Adeus São Paulo querido - Sulino and Marrueiro
TTITLE2=Tira o olho gordo - Leôncio and Leonel
TTITLE3=Fuscão Preto - Silveira and Silveirinha
TTITLE4=Laço de couro - Sulino and Marrueiro
TTITLE5=Rosas vermelhas para a moça bonita - Sulino and Marr
TTITLE6=A volta do boiadeiro - Sulino and Marrueiro
TTITLE7=Pai João e mãe Maria - Leôncio and Leonel
TTITLE8=Testamento de um pobre velho - silveira and Silveiri
TTITLE9=Burro picasso - Belmiro and Belmam
TTITLE10=Festa no céu - Sulino and Marrueiro
TTITLE11=O Poder da Fé - Abel and Caim
EXTD=
EXTT0=
EXTT1=
EXTT2=
EXTT3=
EXTT4=
EXTT5=
EXTT6=
EXTT7=
EXTT8=
EXTT9=
EXTT10=
EXTT11=
PLAYORDER=
